<svg id="visual" viewBox="0 0 900 600" width="900" height="600" xmlns="http://www.w3.org/2000/svg" xmlns:xlink="http://www.w3.org/1999/xlink" version="1.1"><rect x="0" y="0" width="900" height="600" fill="#f9f9f9"></rect><path d="M0 485L13.7 486C27.3 487 54.7 489 82 488.8C109.3 488.7 136.7 486.3 163.8 484.7C191 483 218 482 245.2 484.3C272.3 486.7 299.7 492.3 327 493.7C354.3 495 381.7 492 409 485.7C436.3 479.3 463.7 469.7 491 467.5C518.3 465.3 545.7 470.7 573 477C600.3 483.3 627.7 490.7 654.8 495.2C682 499.7 709 501.3 736.2 496.5C763.3 491.7 790.7 480.3 818 473.2C845.3 466 872.7 463 886.3 461.5L900 460L900 601L886.3 601C872.7 601 845.3 601 818 601C790.7 601 763.3 601 736.2 601C709 601 682 601 654.8 601C627.7 601 600.3 601 573 601C545.7 601 518.3 601 491 601C463.7 601 436.3 601 409 601C381.7 601 354.3 601 327 601C299.7 601 272.3 601 245.2 601C218 601 191 601 163.8 601C136.7 601 109.3 601 82 601C54.7 601 27.3 601 13.7 601L0 601Z" fill="#fa7268"></path><path d="M0 494L13.7 490.7C27.3 487.3 54.7 480.7 82 477.2C109.3 473.7 136.7 473.3 163.8 475.2C191 477 218 481 245.2 488.5C272.3 496 299.7 507 327 510.3C354.3 513.7 381.7 509.3 409 505.5C436.3 501.7 463.7 498.3 491 500.2C518.3 502 545.7 509 573 507C600.3 505 627.7 494 654.8 490.5C682 487 709 491 736.2 489.5C763.3 488 790.7 481 818 485.5C845.3 490 872.7 506 886.3 514L900 522L900 601L886.3 601C872.7 601 845.3 601 818 601C790.7 601 763.3 601 736.2 601C709 601 682 601 654.8 601C627.7 601 600.3 601 573 601C545.7 601 518.3 601 491 601C463.7 601 436.3 601 409 601C381.7 601 354.3 601 327 601C299.7 601 272.3 601 245.2 601C218 601 191 601 163.8 601C136.7 601 109.3 601 82 601C54.7 601 27.3 601 13.7 601L0 601Z" fill="#f16367"></path><path d="M0 517L13.7 518.2C27.3 519.3 54.7 521.7 82 518.8C109.3 516 136.7 508 163.8 503.2C191 498.3 218 496.7 245.2 497.3C272.3 498 299.7 501 327 506.3C354.3 511.7 381.7 519.3 409 519.7C436.3 520 463.7 513 491 508.7C518.3 504.3 545.7 502.7 573 503C600.3 503.3 627.7 505.7 654.8 508.7C682 511.7 709 515.3 736.2 518.2C763.3 521 790.7 523 818 525.3C845.3 527.7 872.7 530.3 886.3 531.7L900 533L900 601L886.3 601C872.7 601 845.3 601 818 601C790.7 601 763.3 601 736.2 601C709 601 682 601 654.8 601C627.7 601 600.3 601 573 601C545.7 601 518.3 601 491 601C463.7 601 436.3 601 409 601C381.7 601 354.3 601 327 601C299.7 601 272.3 601 245.2 601C218 601 191 601 163.8 601C136.7 601 109.3 601 82 601C54.7 601 27.3 601 13.7 601L0 601Z" fill="#e85467"></path><path d="M0 548L13.7 548.3C27.3 548.7 54.7 549.3 82 545.8C109.3 542.3 136.7 534.7 163.8 533.5C191 532.3 218 537.7 245.2 535.8C272.3 534 299.7 525 327 526.3C354.3 527.7 381.7 539.3 409 543.5C436.3 547.7 463.7 544.3 491 544.5C518.3 544.7 545.7 548.3 573 544.5C600.3 540.7 627.7 529.3 654.8 524.5C682 519.7 709 521.3 736.2 525C763.3 528.7 790.7 534.3 818 538.3C845.3 542.3 872.7 544.7 886.3 545.8L900 547L900 601L886.3 601C872.7 601 845.3 601 818 601C790.7 601 763.3 601 736.2 601C709 601 682 601 654.8 601C627.7 601 600.3 601 573 601C545.7 601 518.3 601 491 601C463.7 601 436.3 601 409 601C381.7 601 354.3 601 327 601C299.7 601 272.3 601 245.2 601C218 601 191 601 163.8 601C136.7 601 109.3 601 82 601C54.7 601 27.3 601 13.7 601L0 601Z" fill="#de4467"></path><path d="M0 564L13.7 560.3C27.3 556.7 54.7 549.3 82 548C109.3 546.7 136.7 551.3 163.8 551.7C191 552 218 548 245.2 549.5C272.3 551 299.7 558 327 559.7C354.3 561.3 381.7 557.7 409 555.2C436.3 552.7 463.7 551.3 491 549.5C518.3 547.7 545.7 545.3 573 544.8C600.3 544.3 627.7 545.7 654.8 545.3C682 545 709 543 736.2 545.2C763.3 547.3 790.7 553.7 818 558.5C845.3 563.3 872.7 566.7 886.3 568.3L900 570L900 601L886.3 601C872.7 601 845.3 601 818 601C790.7 601 763.3 601 736.2 601C709 601 682 601 654.8 601C627.7 601 600.3 601 573 601C545.7 601 518.3 601 491 601C463.7 601 436.3 601 409 601C381.7 601 354.3 601 327 601C299.7 601 272.3 601 245.2 601C218 601 191 601 163.8 601C136.7 601 109.3 601 82 601C54.7 601 27.3 601 13.7 601L0 601Z" fill="#d23467"></path><path d="M0 561L13.7 565C27.3 569 54.7 577 82 577.8C109.3 578.7 136.7 572.3 163.8 571.2C191 570 218 574 245.2 576.8C272.3 579.7 299.7 581.3 327 582.3C354.3 583.3 381.7 583.7 409 582C436.3 580.3 463.7 576.7 491 576.3C518.3 576 545.7 579 573 579.2C600.3 579.3 627.7 576.7 654.8 573.7C682 570.7 709 567.3 736.2 568.2C763.3 569 790.7 574 818 576.2C845.3 578.3 872.7 577.7 886.3 577.3L900 577L900 601L886.3 601C872.7 601 845.3 601 818 601C790.7 601 763.3 601 736.2 601C709 601 682 601 654.8 601C627.7 601 600.3 601 573 601C545.7 601 518.3 601 491 601C463.7 601 436.3 601 409 601C381.7 601 354.3 601 327 601C299.7 601 272.3 601 245.2 601C218 601 191 601 163.8 601C136.7 601 109.3 601 82 601C54.7 601 27.3 601 13.7 601L0 601Z" fill="#c62368"></path></svg>