<svg id="visual" viewBox="0 0 900 675" width="900" height="675" xmlns="http://www.w3.org/2000/svg" xmlns:xlink="http://www.w3.org/1999/xlink" version="1.1"><rect x="0" y="0" width="900" height="675" fill="#f9f9f9"></rect><path d="M563 675L568.5 659C574 643 585 611 587.3 578.8C589.7 546.7 583.3 514.3 592.7 482.2C602 450 627 418 633.8 385.8C640.7 353.7 629.3 321.3 612.5 289.2C595.7 257 573.3 225 563 192.8C552.7 160.7 554.3 128.3 553.2 96.2C552 64 548 32 546 16L544 0L900 0L900 16C900 32 900 64 900 96.2C900 128.3 900 160.7 900 192.8C900 225 900 257 900 289.2C900 321.3 900 353.7 900 385.8C900 418 900 450 900 482.2C900 514.3 900 546.7 900 578.8C900 611 900 643 900 659L900 675Z" fill="#fa7268"></path><path d="M715 675L694.7 659C674.3 643 633.7 611 631.5 578.8C629.3 546.7 665.7 514.3 686.5 482.2C707.3 450 712.7 418 715 385.8C717.3 353.7 716.7 321.3 713.5 289.2C710.3 257 704.7 225 695.2 192.8C685.7 160.7 672.3 128.3 666.8 96.2C661.3 64 663.7 32 664.8 16L666 0L900 0L900 16C900 32 900 64 900 96.2C900 128.3 900 160.7 900 192.8C900 225 900 257 900 289.2C900 321.3 900 353.7 900 385.8C900 418 900 450 900 482.2C900 514.3 900 546.7 900 578.8C900 611 900 643 900 659L900 675Z" fill="#eb685d"></path><path d="M750 675L747.5 659C745 643 740 611 741 578.8C742 546.7 749 514.3 752.7 482.2C756.3 450 756.7 418 748.2 385.8C739.7 353.7 722.3 321.3 705.8 289.2C689.3 257 673.7 225 677.5 192.8C681.3 160.7 704.7 128.3 720.3 96.2C736 64 744 32 748 16L752 0L900 0L900 16C900 32 900 64 900 96.2C900 128.3 900 160.7 900 192.8C900 225 900 257 900 289.2C900 321.3 900 353.7 900 385.8C900 418 900 450 900 482.2C900 514.3 900 546.7 900 578.8C900 611 900 643 900 659L900 675Z" fill="#dc5e53"></path><path d="M756 675L758.3 659C760.7 643 765.3 611 768.3 578.8C771.3 546.7 772.7 514.3 772.8 482.2C773 450 772 418 776.8 385.8C781.7 353.7 792.3 321.3 792.2 289.2C792 257 781 225 774.2 192.8C767.3 160.7 764.7 128.3 768.7 96.2C772.7 64 783.3 32 788.7 16L794 0L900 0L900 16C900 32 900 64 900 96.2C900 128.3 900 160.7 900 192.8C900 225 900 257 900 289.2C900 321.3 900 353.7 900 385.8C900 418 900 450 900 482.2C900 514.3 900 546.7 900 578.8C900 611 900 643 900 659L900 675Z" fill="#cd5449"></path><path d="M792 675L799.8 659C807.7 643 823.3 611 833.7 578.8C844 546.7 849 514.3 846.8 482.2C844.7 450 835.3 418 832.8 385.8C830.3 353.7 834.7 321.3 835.2 289.2C835.7 257 832.3 225 831.7 192.8C831 160.7 833 128.3 832.3 96.2C831.7 64 828.3 32 826.7 16L825 0L900 0L900 16C900 32 900 64 900 96.2C900 128.3 900 160.7 900 192.8C900 225 900 257 900 289.2C900 321.3 900 353.7 900 385.8C900 418 900 450 900 482.2C900 514.3 900 546.7 900 578.8C900 611 900 643 900 659L900 675Z" fill="#bf4a3f"></path></svg>