<svg id="visual" viewBox="0 0 900 675" width="900" height="675" xmlns="http://www.w3.org/2000/svg" xmlns:xlink="http://www.w3.org/1999/xlink" version="1.1"><path d="M0 55L13.7 62.8C27.3 70.7 54.7 86.3 82 98.7C109.3 111 136.7 120 163.8 116.7C191 113.3 218 97.7 245.2 100C272.3 102.3 299.7 122.7 327 130.5C354.3 138.3 381.7 133.7 409 130.3C436.3 127 463.7 125 491 125C518.3 125 545.7 127 573 129.2C600.3 131.3 627.7 133.7 654.8 133.7C682 133.7 709 131.3 736.2 116.7C763.3 102 790.7 75 818 63.8C845.3 52.7 872.7 57.3 886.3 59.7L900 62L900 0L886.3 0C872.7 0 845.3 0 818 0C790.7 0 763.3 0 736.2 0C709 0 682 0 654.8 0C627.7 0 600.3 0 573 0C545.7 0 518.3 0 491 0C463.7 0 436.3 0 409 0C381.7 0 354.3 0 327 0C299.7 0 272.3 0 245.2 0C218 0 191 0 163.8 0C136.7 0 109.3 0 82 0C54.7 0 27.3 0 13.7 0L0 0Z" fill="#fd998e"></path><path d="M0 204L13.7 214C27.3 224 54.7 244 82 258.5C109.3 273 136.7 282 163.8 268.5C191 255 218 219 245.2 223.5C272.3 228 299.7 273 327 273C354.3 273 381.7 228 409 211.2C436.3 194.3 463.7 205.7 491 221.5C518.3 237.3 545.7 257.7 573 266.7C600.3 275.7 627.7 273.3 654.8 273.3C682 273.3 709 275.7 736.2 262.2C763.3 248.7 790.7 219.3 818 210.3C845.3 201.3 872.7 212.7 886.3 218.3L900 224L900 60L886.3 57.7C872.7 55.3 845.3 50.7 818 61.8C790.7 73 763.3 100 736.2 114.7C709 129.3 682 131.7 654.8 131.7C627.7 131.7 600.3 129.3 573 127.2C545.7 125 518.3 123 491 123C463.7 123 436.3 125 409 128.3C381.7 131.7 354.3 136.3 327 128.5C299.7 120.7 272.3 100.3 245.2 98C218 95.7 191 111.3 163.8 114.7C136.7 118 109.3 109 82 96.7C54.7 84.3 27.3 68.7 13.7 60.8L0 53Z" fill="#f88175"></path><path d="M0 386L13.7 387.2C27.3 388.3 54.7 390.7 82 398.5C109.3 406.3 136.7 419.7 163.8 418.5C191 417.3 218 401.7 245.2 416.3C272.3 431 299.7 476 327 472.7C354.3 469.3 381.7 417.7 409 399.7C436.3 381.7 463.7 397.3 491 411.8C518.3 426.3 545.7 439.7 573 447.5C600.3 455.3 627.7 457.7 654.8 446.5C682 435.3 709 410.7 736.2 415.2C763.3 419.7 790.7 453.3 818 450C845.3 446.7 872.7 406.3 886.3 386.2L900 366L900 222L886.3 216.3C872.7 210.7 845.3 199.3 818 208.3C790.7 217.3 763.3 246.7 736.2 260.2C709 273.7 682 271.3 654.8 271.3C627.7 271.3 600.3 273.7 573 264.7C545.7 255.7 518.3 235.3 491 219.5C463.7 203.7 436.3 192.3 409 209.2C381.7 226 354.3 271 327 271C299.7 271 272.3 226 245.2 221.5C218 217 191 253 163.8 266.5C136.7 280 109.3 271 82 256.5C54.7 242 27.3 222 13.7 212L0 202Z" fill="#f2695c"></path><path d="M0 615L13.7 609.5C27.3 604 54.7 593 82 590.8C109.3 588.7 136.7 595.3 163.8 599.8C191 604.3 218 606.7 245.2 611.2C272.3 615.7 299.7 622.3 327 618.8C354.3 615.3 381.7 601.7 409 590.3C436.3 579 463.7 570 491 567.8C518.3 565.7 545.7 570.3 573 573.8C600.3 577.3 627.7 579.7 654.8 577.3C682 575 709 568 736.2 575.8C763.3 583.7 790.7 606.3 818 615.3C845.3 624.3 872.7 619.7 886.3 617.3L900 615L900 364L886.3 384.2C872.7 404.3 845.3 444.7 818 448C790.7 451.3 763.3 417.7 736.2 413.2C709 408.7 682 433.3 654.8 444.5C627.7 455.7 600.3 453.3 573 445.5C545.7 437.7 518.3 424.3 491 409.8C463.7 395.3 436.3 379.7 409 397.7C381.7 415.7 354.3 467.3 327 470.7C299.7 474 272.3 429 245.2 414.3C218 399.7 191 415.3 163.8 416.5C136.7 417.7 109.3 404.3 82 396.5C54.7 388.7 27.3 386.3 13.7 385.2L0 384Z" fill="#d4584d"></path><path d="M0 676L13.7 676C27.3 676 54.7 676 82 676C109.3 676 136.7 676 163.8 676C191 676 218 676 245.2 676C272.3 676 299.7 676 327 676C354.3 676 381.7 676 409 676C436.3 676 463.7 676 491 676C518.3 676 545.7 676 573 676C600.3 676 627.7 676 654.8 676C682 676 709 676 736.2 676C763.3 676 790.7 676 818 676C845.3 676 872.7 676 886.3 676L900 676L900 613L886.3 615.3C872.7 617.7 845.3 622.3 818 613.3C790.7 604.3 763.3 581.7 736.2 573.8C709 566 682 573 654.8 575.3C627.7 577.7 600.3 575.3 573 571.8C545.7 568.3 518.3 563.7 491 565.8C463.7 568 436.3 577 409 588.3C381.7 599.7 354.3 613.3 327 616.8C299.7 620.3 272.3 613.7 245.2 609.2C218 604.7 191 602.3 163.8 597.8C136.7 593.3 109.3 586.7 82 588.8C54.7 591 27.3 602 13.7 607.5L0 613Z" fill="#b7483e"></path></svg>