<svg id="visual" viewBox="0 0 900 675" width="900" height="675" xmlns="http://www.w3.org/2000/svg" xmlns:xlink="http://www.w3.org/1999/xlink" version="1.1"><rect x="0" y="0" width="900" height="675" fill="#f7f7f7"></rect><path d="M585 675L613.8 662.5C642.7 650 700.3 625 728.3 600C756.3 575 754.7 550 732.3 525C710 500 667 475 646 450C625 425 626 400 643.5 375C661 350 695 325 701.2 300C707.3 275 685.7 250 694 225C702.3 200 740.7 175 726.2 150C711.7 125 644.3 100 620 75C595.7 50 614.3 25 623.7 12.5L633 0L900 0L900 12.5C900 25 900 50 900 75C900 100 900 125 900 150C900 175 900 200 900 225C900 250 900 275 900 300C900 325 900 350 900 375C900 400 900 425 900 450C900 475 900 500 900 525C900 550 900 575 900 600C900 625 900 650 900 662.5L900 675Z" fill="#F2695C" stroke-linecap="round" stroke-linejoin="miter"></path></svg>